<svg xmlns="http://www.w3.org/2000/svg" xmlns:xlink="http://www.w3.org/1999/xlink" xmlns:lucid="lucid" width="1240" height="765"><g transform="translate(-280 120)" lucid:page-tab-id="0_0"><path d="M0-1259.2h1870.4v2582.4H0z" fill="#fff"/><path d="M380-100h200v210H380z" fill="#f203ff"/><path d="M380-100h200v210H380zM380-60h200" stroke="#000" stroke-width="2" fill="none"/><use xlink:href="#a" transform="matrix(1,0,0,1,390,-100) translate(50.75 23.6)"/><use xlink:href="#b" transform="matrix(1,0,0,1,385,-57.5) translate(0 17.1)"/><use xlink:href="#c" transform="matrix(1,0,0,1,385,-57.5) translate(22.950000000000003 17.1)"/><use xlink:href="#d" transform="matrix(1,0,0,1,385,-57.5) translate(56.50000000000001 17.1)"/><use xlink:href="#e" transform="matrix(1,0,0,1,385,-25.5) translate(0 16.799999999999997)"/><use xlink:href="#f" transform="matrix(1,0,0,1,385,-25.5) translate(0 38.4)"/><use xlink:href="#g" transform="matrix(1,0,0,1,385,27.5) translate(0 16.799999999999997)"/><use xlink:href="#f" transform="matrix(1,0,0,1,385,27.5) translate(0 38.4)"/><use xlink:href="#h" transform="matrix(1,0,0,1,385,80.5) translate(0 17.1)"/><use xlink:href="#i" transform="matrix(1,0,0,1,385,80.5) translate(97.45 17.1)"/><path d="M340 140h200v125H340z" fill="#f6ff00"/><path d="M340 140h200v125H340zM340 180h200" stroke="#000" stroke-width="2" fill="none"/><use xlink:href="#j" transform="matrix(1,0,0,1,350,140) translate(49.074999999999996 23.6)"/><use xlink:href="#b" transform="matrix(1,0,0,1,345,182.5) translate(0 17.1)"/><use xlink:href="#c" transform="matrix(1,0,0,1,345,182.5) translate(22.950000000000003 17.1)"/><use xlink:href="#d" transform="matrix(1,0,0,1,345,182.5) translate(56.50000000000001 17.1)"/><use xlink:href="#g" transform="matrix(1,0,0,1,345,214.5) translate(0 16.799999999999997)"/><use xlink:href="#f" transform="matrix(1,0,0,1,345,214.5) translate(0 38.4)"/><path d="M320 295h200v125H320z" fill="red"/><path d="M320 295h200v125H320zM320 335h200" stroke="#000" stroke-width="2" fill="none"/><use xlink:href="#k" transform="matrix(1,0,0,1,330,295) translate(39.574999999999996 23.6)"/><use xlink:href="#b" transform="matrix(1,0,0,1,325,337.5) translate(0 17.1)"/><use xlink:href="#c" transform="matrix(1,0,0,1,325,337.5) translate(22.950000000000003 17.1)"/><use xlink:href="#d" transform="matrix(1,0,0,1,325,337.5) translate(56.50000000000001 17.1)"/><use xlink:href="#g" transform="matrix(1,0,0,1,325,369.5) translate(0 16.799999999999997)"/><use xlink:href="#f" transform="matrix(1,0,0,1,325,369.5) translate(0 38.4)"/><path d="M930 500h200v125H930z" fill="#3aa6dd"/><path d="M930 500h200v125H930zM930 540h200" stroke="#000" stroke-width="2" fill="none"/><use xlink:href="#l" transform="matrix(1,0,0,1,940,500) translate(51.074999999999996 23.6)"/><use xlink:href="#b" transform="matrix(1,0,0,1,935,542.5) translate(0 17.1)"/><use xlink:href="#c" transform="matrix(1,0,0,1,935,542.5) translate(22.950000000000003 17.1)"/><use xlink:href="#d" transform="matrix(1,0,0,1,935,542.5) translate(56.50000000000001 17.1)"/><use xlink:href="#g" transform="matrix(1,0,0,1,935,574.5) translate(0 16.799999999999997)"/><use xlink:href="#f" transform="matrix(1,0,0,1,935,574.5) translate(0 38.4)"/><path d="M1300 456h200v157h-200z" fill="#5abaa7"/><path d="M1300 456h200v157h-200zM1300 496h200" stroke="#000" stroke-width="2" fill="none"/><use xlink:href="#m" transform="matrix(1,0,0,1,1310,456) translate(66.525 23.6)"/><use xlink:href="#b" transform="matrix(1,0,0,1,1305,498.5) translate(0 17.1)"/><use xlink:href="#c" transform="matrix(1,0,0,1,1305,498.5) translate(22.950000000000003 17.1)"/><use xlink:href="#d" transform="matrix(1,0,0,1,1305,498.5) translate(56.50000000000001 17.1)"/><use xlink:href="#g" transform="matrix(1,0,0,1,1305,530.5) translate(0 16.799999999999997)"/><use xlink:href="#f" transform="matrix(1,0,0,1,1305,530.5) translate(0 38.4)"/><use xlink:href="#n" transform="matrix(1,0,0,1,1305,583.5) translate(0 17.1)"/><use xlink:href="#c" transform="matrix(1,0,0,1,1305,583.5) translate(110.80000000000001 17.1)"/><use xlink:href="#o" transform="matrix(1,0,0,1,1305,583.5) translate(144.35000000000002 17.1)"/><path d="M300 440h200v125H300z" fill="#de5f85"/><path d="M300 440h200v125H300zM300 480h200" stroke="#000" stroke-width="2" fill="none"/><use xlink:href="#p" transform="matrix(1,0,0,1,310,440) translate(70.075 23.6)"/><use xlink:href="#b" transform="matrix(1,0,0,1,305,482.5) translate(0 17.1)"/><use xlink:href="#c" transform="matrix(1,0,0,1,305,482.5) translate(22.950000000000003 17.1)"/><use xlink:href="#d" transform="matrix(1,0,0,1,305,482.5) translate(56.50000000000001 17.1)"/><use xlink:href="#q" transform="matrix(1,0,0,1,305,514.5) translate(0 16.799999999999997)"/><use xlink:href="#f" transform="matrix(1,0,0,1,305,514.5) translate(0 38.4)"/><path d="M1300 280h200v125h-200z" fill="#00ffc3"/><path d="M1300 280h200v125h-200zM1300 320h200" stroke="#000" stroke-width="2" fill="none"/><use xlink:href="#r" transform="matrix(1,0,0,1,1310,280) translate(69.025 23.6)"/><use xlink:href="#b" transform="matrix(1,0,0,1,1305,322.5) translate(0 17.1)"/><use xlink:href="#c" transform="matrix(1,0,0,1,1305,322.5) translate(22.950000000000003 17.1)"/><use xlink:href="#d" transform="matrix(1,0,0,1,1305,322.5) translate(56.50000000000001 17.1)"/><use xlink:href="#q" transform="matrix(1,0,0,1,1305,354.5) translate(0 16.799999999999997)"/><use xlink:href="#f" transform="matrix(1,0,0,1,1305,354.5) translate(0 38.4)"/><path d="M1260 120h200v125h-200z" fill="#bfff00"/><path d="M1260 120h200v125h-200zM1260 160h200" stroke="#000" stroke-width="2" fill="none"/><use xlink:href="#s" transform="matrix(1,0,0,1,1270,120) translate(48.074999999999996 23.6)"/><use xlink:href="#b" transform="matrix(1,0,0,1,1265,162.5) translate(0 17.1)"/><use xlink:href="#c" transform="matrix(1,0,0,1,1265,162.5) translate(22.950000000000003 17.1)"/><use xlink:href="#d" transform="matrix(1,0,0,1,1265,162.5) translate(56.50000000000001 17.1)"/><use xlink:href="#q" transform="matrix(1,0,0,1,1265,194.5) translate(0 16.799999999999997)"/><use xlink:href="#f" transform="matrix(1,0,0,1,1265,194.5) translate(0 38.4)"/><path d="M640 275h200v338H640z" fill="#60f"/><path d="M640 275h200v338H640zM640 315h200" stroke="#000" stroke-width="2" fill="none"/><use xlink:href="#t" transform="matrix(1,0,0,1,650,275) translate(57.575 23.6)"/><use xlink:href="#b" transform="matrix(1,0,0,1,645,317.5) translate(0 17.1)"/><use xlink:href="#c" transform="matrix(1,0,0,1,645,317.5) translate(22.950000000000003 17.1)"/><use xlink:href="#d" transform="matrix(1,0,0,1,645,317.5) translate(56.50000000000001 17.1)"/><use xlink:href="#u" transform="matrix(1,0,0,1,645,349.5) translate(0 17.1)"/><use xlink:href="#i" transform="matrix(1,0,0,1,645,349.5) translate(43.85 17.1)"/><use xlink:href="#v" transform="matrix(1,0,0,1,645,381.5) translate(0 17.1)"/><use xlink:href="#i" transform="matrix(1,0,0,1,645,381.5) translate(68.9 17.1)"/><use xlink:href="#w" transform="matrix(1,0,0,1,645,413.5) translate(0 16.799999999999997)"/><use xlink:href="#i" transform="matrix(1,0,0,1,645,413.5) translate(0 38.4)"/><use xlink:href="#x" transform="matrix(1,0,0,1,645,466.5) translate(0 17.1)"/><use xlink:href="#c" transform="matrix(1,0,0,1,645,466.5) translate(110.45 17.1)"/><use xlink:href="#o" transform="matrix(1,0,0,1,645,466.5) translate(144 17.1)"/><use xlink:href="#y" transform="matrix(1,0,0,1,645,498.5) translate(0 17.1)"/><use xlink:href="#c" transform="matrix(1,0,0,1,645,498.5) translate(114.80000000000001 17.1)"/><use xlink:href="#o" transform="matrix(1,0,0,1,645,498.5) translate(148.35000000000002 17.1)"/><use xlink:href="#z" transform="matrix(1,0,0,1,645,530.5) translate(0 16.799999999999997)"/><use xlink:href="#A" transform="matrix(1,0,0,1,645,530.5) translate(133.8 16.799999999999997)"/><use xlink:href="#o" transform="matrix(1,0,0,1,645,530.5) translate(0 38.4)"/><use xlink:href="#B" transform="matrix(1,0,0,1,645,583.5) translate(0 17.1)"/><use xlink:href="#c" transform="matrix(1,0,0,1,645,583.5) translate(87.85000000000001 17.1)"/><use xlink:href="#o" transform="matrix(1,0,0,1,645,583.5) translate(121.4 17.1)"/><path d="M601-44.5h9v524.86h10.18" stroke="#000" stroke-width="2" fill="none"/><path fill="#fff"/><path d="M602-34.5h-2v-20h2z"/><path fill="#fff"/><path d="M601-43.5h-20v-2h20z"/><path d="M638.55 490.36l-20-10 20-10z" fill="#fff"/><path d="M639 471.25l-18.2 9.1 18.2 9.12-.9 1.78-21.78-10.9 21.8-10.88z"/><path fill="#fff"/><path d="M638.55 481.36h-20v-2h20z"/><path d="M561 195.94h29v316.74h30.18" stroke="#000" stroke-width="2" fill="none"/><path fill="#fff"/><path d="M562 205.94h-2v-20h2z"/><path fill="#fff"/><path d="M561 196.94h-20v-2h20z"/><path d="M638.55 522.68l-20-10 20-10z" fill="#fff"/><path d="M639 503.57l-18.2 9.1 18.2 9.12-.9 1.77-21.78-10.9 21.8-10.88z"/><path fill="#fff"/><path d="M638.55 513.68h-20v-2h20z"/><path d="M541 350.94h39V555.6h40.18" stroke="#000" stroke-width="2" fill="none"/><path fill="#fff"/><path d="M542 360.94h-2v-20h2z"/><path fill="#fff"/><path d="M541 351.94h-20v-2h20z"/><path d="M638.55 565.6l-20-10 20-10z" fill="#fff"/><path d="M639 546.5l-18.2 9.1 18.2 9.1-.9 1.8-21.78-10.9 21.8-10.9z"/><path fill="#fff"/><path d="M638.55 556.6h-20v-2h20z"/><path d="M521 495.94h49v102.6h50.18" stroke="#000" stroke-width="2" fill="none"/><path fill="#fff"/><path d="M522 505.94h-2v-20h2z"/><path fill="#fff"/><path d="M521 496.94h-20v-2h20z"/><path d="M638.55 608.53l-20-10 20-10z" fill="#fff"/><path d="M639 589.42l-18.2 9.1 18.2 9.12-.9 1.78-21.78-10.9 21.8-10.88z"/><path fill="#fff"/><path d="M638.55 599.53h-20v-2h20z"/><path d="M980 275h200v168H980z" fill="#ffbbb1"/><path d="M980 275h200v168H980zM980 315h200" stroke="#000" stroke-width="2" fill="none"/><use xlink:href="#C" transform="matrix(1,0,0,1,990,275) translate(14.625 23.6)"/><use xlink:href="#D" transform="matrix(1,0,0,1,985,317.5) translate(0 17.1)"/><use xlink:href="#c" transform="matrix(1,0,0,1,985,317.5) translate(97.80000000000001 17.1)"/><use xlink:href="#o" transform="matrix(1,0,0,1,985,317.5) translate(131.35000000000002 17.1)"/><use xlink:href="#E" transform="matrix(1,0,0,1,985,349.5) translate(0 17.1)"/><use xlink:href="#c" transform="matrix(1,0,0,1,985,349.5) translate(116.80000000000001 17.1)"/><use xlink:href="#o" transform="matrix(1,0,0,1,985,349.5) translate(150.35000000000002 17.1)"/><use xlink:href="#F" transform="matrix(1,0,0,1,985,381.5) translate(0 17.1)"/><use xlink:href="#c" transform="matrix(1,0,0,1,985,381.5) translate(74.9 17.1)"/><use xlink:href="#o" transform="matrix(1,0,0,1,985,381.5) translate(108.45000000000002 17.1)"/><use xlink:href="#G" transform="matrix(1,0,0,1,985,413.5) translate(0 17.1)"/><use xlink:href="#c" transform="matrix(1,0,0,1,985,413.5) translate(78.9 17.1)"/><use xlink:href="#o" transform="matrix(1,0,0,1,985,413.5) translate(112.45000000000002 17.1)"/><path d="M861 329.87h99.18" stroke="#000" stroke-width="2" fill="none"/><path fill="#fff"/><path d="M862 339.87h-2v-20h2z"/><path fill="#fff"/><path d="M861 330.87h-20v-2h20z"/><path d="M978.55 339.87l-20-10 20-10z" fill="#fff"/><path d="M979 320.76l-18.2 9.1L979 339l-.9 1.78-21.78-10.9 21.8-10.88z"/><path fill="#fff"/><path d="M978.55 330.87h-20v-2h20z"/><path d="M1400 406" stroke="#000" stroke-width="2" fill="none"/><path d="M1380 396v20M1400 406h-20M1399.55 416l-20-10 20-10M1399.55 406h-20" stroke="#000" stroke-width="2" fill="#fff"/><path d="M1239 175.94h-19v187.1h-20.18" stroke="#000" stroke-width="2" fill="none"/><path fill="#fff"/><path d="M1240 185.94h-2v-20h2z"/><path fill="#fff"/><path d="M1259 176.94h-20v-2h20z"/><path d="M1181.45 353.04l20 10-20 10z" fill="#fff"/><path d="M1203.68 363.04l-21.8 10.9-.88-1.8 18.2-9.1-18.2-9.1.9-1.8z"/><path fill="#fff"/><path d="M1201.45 364.04h-20v-2h20z"/><path d="M1279 335.94h-39v59.42h-40.18" stroke="#000" stroke-width="2" fill="none"/><path fill="#fff"/><path d="M1280 345.94h-2v-20h2z"/><path fill="#fff"/><path d="M1299 336.94h-20v-2h20z"/><path d="M1181.45 385.36l20 10-20 10z" fill="#fff"/><path d="M1203.68 395.36l-21.8 10.9-.88-1.8 18.2-9.1-18.2-9.1.9-1.8z"/><path fill="#fff"/><path d="M1201.45 396.36h-20v-2h20z"/><path d="M1279 511.77h-39v-84.1h-40.18" stroke="#000" stroke-width="2" fill="none"/><path fill="#fff"/><path d="M1280 521.77h-2v-20h2z"/><path fill="#fff"/><path d="M1299 512.77h-20v-2h20z"/><path d="M1181.45 417.68l20 10-20 10z" fill="#fff"/><path d="M1203.68 427.68l-21.8 10.9-.88-1.8 18.2-9.1-18.2-9.1.9-1.8z"/><path fill="#fff"/><path d="M1201.45 428.68h-20v-2h20z"/><path d="M1151 555.93h64v41.7h65.18" stroke="#000" stroke-width="2" fill="none"/><path fill="#fff"/><path d="M1152 565.93h-2v-20h2z"/><path fill="#fff"/><path d="M1151 556.93h-20v-2h20z"/><path d="M1298.55 607.63l-20-10 20-10z" fill="#fff"/><path d="M1299 588.52l-18.2 9.1 18.2 9.1-.9 1.8-21.78-10.9 21.8-10.9z"/><path fill="#fff"/><path d="M1298.55 598.63h-20v-2h20z"/><path d="M660-80h200V45H660z" fill="#ff00a5"/><path d="M660-80h200V45H660zM660-40h200" stroke="#000" stroke-width="2" fill="none"/><g><use xlink:href="#H" transform="matrix(1,0,0,1,670,-80) translate(46.099999999999994 23.6)"/></g><g><use xlink:href="#b" transform="matrix(1,0,0,1,665,-37.5) translate(0 17.1)"/><use xlink:href="#c" transform="matrix(1,0,0,1,665,-37.5) translate(22.950000000000003 17.1)"/><use xlink:href="#d" transform="matrix(1,0,0,1,665,-37.5) translate(56.50000000000001 17.1)"/></g><g><use xlink:href="#g" transform="matrix(1,0,0,1,665,-5.5) translate(0 16.799999999999997)"/><use xlink:href="#f" transform="matrix(1,0,0,1,665,-5.5) translate(0 38.4)"/></g><path d="M955 36h250v104H955z" fill="#00ff4c"/><path d="M955 36h250v104H955zM955 76h250" stroke="#000" stroke-width="2" fill="none"/><g><use xlink:href="#I" transform="matrix(1,0,0,1,965,36) translate(17.500000000000014 23.6)"/></g><g><use xlink:href="#D" transform="matrix(1,0,0,1,960,78.5) translate(0 17.1)"/><use xlink:href="#c" transform="matrix(1,0,0,1,960,78.5) translate(97.80000000000001 17.1)"/><use xlink:href="#o" transform="matrix(1,0,0,1,960,78.5) translate(131.35000000000002 17.1)"/></g><g><use xlink:href="#J" transform="matrix(1,0,0,1,960,110.5) translate(0 17.1)"/><use xlink:href="#c" transform="matrix(1,0,0,1,960,110.5) translate(119.75000000000001 17.1)"/><use xlink:href="#o" transform="matrix(1,0,0,1,960,110.5) translate(153.3 17.1)"/></g><path d="M861 329.87h36.5V92.03h37.68" stroke="#000" stroke-width="2" fill="none"/><path fill="#fff"/><path d="M862 339.87h-2v-20h2z"/><path fill="#fff"/><path d="M861 330.87h-20v-2h20z"/><path d="M953.55 102.03l-20-10 20-10z" fill="#fff"/><path d="M954 82.93l-18.2 9.1 18.2 9.1-.9 1.8-21.78-10.9 21.8-10.9z"/><path fill="#fff"/><path d="M953.55 93.03h-20v-2h20z"/><path d="M881-24.06h26.5v148.35h27.68" stroke="#000" stroke-width="2" fill="none"/><path fill="#fff"/><path d="M882-14.06h-2v-20h2z"/><path fill="#fff"/><path d="M881-23.07h-20v-2h20z"/><path d="M953.55 134.3l-20-10 20-10z" fill="#fff"/><path d="M954 115.18l-18.2 9.1 18.2 9.1-.9 1.8-21.78-10.9 21.8-10.9z"/><path fill="#fff"/><path d="M953.55 125.3h-20v-2h20z"/><defs><path d="M240 0l2-218c-23 76-54 145-80 218h-23L58-218 59 0H30v-248h44l77 211c21-75 51-140 76-211h43V0h-30" id="K"/><path d="M205 0l-28-72H64L36 0H1l101-248h38L239 0h-34zm-38-99l-47-123c-12 45-31 82-46 123h93" id="L"/><path d="M127-220V0H93v-220H8v-28h204v28h-85" id="M"/><path d="M30 0v-248h187v28H63v79h144v27H63v87h162V0H30" id="N"/><path d="M233-177c-1 41-23 64-60 70L243 0h-38l-65-103H63V0H30v-248c88 3 205-21 203 71zM63-129c60-2 137 13 137-47 0-61-80-42-137-45v92" id="O"/><path d="M33 0v-248h34V0H33" id="P"/><g id="a"><use transform="matrix(0.05,0,0,0.05,0,0)" xlink:href="#K"/><use transform="matrix(0.05,0,0,0.05,14.950000000000001,0)" xlink:href="#L"/><use transform="matrix(0.05,0,0,0.05,25.6,0)" xlink:href="#M"/><use transform="matrix(0.05,0,0,0.05,36.550000000000004,0)" xlink:href="#N"/><use transform="matrix(0.05,0,0,0.05,48.550000000000004,0)" xlink:href="#O"/><use transform="matrix(0.05,0,0,0.05,61.5,0)" xlink:href="#P"/><use transform="matrix(0.05,0,0,0.05,66.5,0)" xlink:href="#L"/></g><path d="M30-248c118-7 216 8 213 122C240-48 200 0 122 0H30v-248zM63-27c89 8 146-16 146-99s-60-101-146-95v194" id="Q"/><g id="b"><use transform="matrix(0.05,0,0,0.05,0,0)" xlink:href="#P"/><use transform="matrix(0.05,0,0,0.05,5,0)" xlink:href="#Q"/></g><path d="M190 0L58-211 59 0H30v-248h39L202-35l-2-213h31V0h-41" id="R"/><g id="c"><use transform="matrix(0.05,0,0,0.05,0,0)" xlink:href="#P"/><use transform="matrix(0.05,0,0,0.05,5,0)" xlink:href="#R"/><use transform="matrix(0.05,0,0,0.05,17.950000000000003,0)" xlink:href="#M"/></g><path d="M30-248c87 1 191-15 191 75 0 78-77 80-158 76V0H30v-248zm33 125c57 0 124 11 124-50 0-59-68-47-124-48v98" id="S"/><path d="M194 0L95-120 63-95V0H30v-248h33v124l119-124h40L117-140 236 0h-42" id="T"/><g id="d"><use transform="matrix(0.05,0,0,0.05,0,0)" xlink:href="#S"/><use transform="matrix(0.05,0,0,0.05,12,0)" xlink:href="#T"/></g><path d="M212-179c-10-28-35-45-73-45-59 0-87 40-87 99 0 60 29 101 89 101 43 0 62-24 78-52l27 14C228-24 195 4 139 4 59 4 22-46 18-125c-6-104 99-153 187-111 19 9 31 26 39 46" id="U"/><path d="M30 0v-248h33v221h125V0H30" id="V"/><path d="M137 0h-34L2-248h35l83 218 83-218h36" id="W"/><g id="e"><use transform="matrix(0.05,0,0,0.05,0,0)" xlink:href="#U"/><use transform="matrix(0.05,0,0,0.05,12.950000000000001,0)" xlink:href="#V"/><use transform="matrix(0.05,0,0,0.05,22.950000000000003,0)" xlink:href="#L"/><use transform="matrix(0.05,0,0,0.05,33.6,0)" xlink:href="#W"/><use transform="matrix(0.05,0,0,0.05,45.6,0)" xlink:href="#N"/></g><path d="M197 0v-115H63V0H30v-248h33v105h134v-105h34V0h-34" id="X"/><path d="M87 75C49 33 22-17 22-94c0-76 28-126 65-167h31c-38 41-64 92-64 168S80 34 118 75H87" id="Y"/><path d="M101-251c82-7 93 87 43 132L82-64C71-53 59-42 53-27h129V0H18c2-99 128-94 128-182 0-28-16-43-45-43s-46 15-49 41l-32-3c6-41 34-60 81-64" id="Z"/><path d="M54-142c48-35 137-8 131 61C196 18 31 33 14-55l32-4c7 23 22 37 52 37 35-1 51-22 54-58 4-55-73-65-99-34H22l8-134h141v27H59" id="aa"/><path d="M33-261c38 41 65 92 65 168S71 34 33 75H2C39 34 66-17 66-93S39-220 2-261h31" id="ab"/><g id="f"><use transform="matrix(0.05,0,0,0.05,0,0)" xlink:href="#W"/><use transform="matrix(0.05,0,0,0.05,10.65,0)" xlink:href="#L"/><use transform="matrix(0.05,0,0,0.05,22.65,0)" xlink:href="#O"/><use transform="matrix(0.05,0,0,0.05,35.6,0)" xlink:href="#U"/><use transform="matrix(0.05,0,0,0.05,48.550000000000004,0)" xlink:href="#X"/><use transform="matrix(0.05,0,0,0.05,61.5,0)" xlink:href="#L"/><use transform="matrix(0.05,0,0,0.05,73.5,0)" xlink:href="#O"/><use transform="matrix(0.05,0,0,0.05,86.45,0)" xlink:href="#Y"/><use transform="matrix(0.05,0,0,0.05,92.4,0)" xlink:href="#Z"/><use transform="matrix(0.05,0,0,0.05,102.4,0)" xlink:href="#aa"/><use transform="matrix(0.05,0,0,0.05,112.4,0)" xlink:href="#aa"/><use transform="matrix(0.05,0,0,0.05,122.4,0)" xlink:href="#ab"/></g><path d="M140-251c81 0 123 46 123 126C263-46 219 4 140 4 59 4 17-45 17-125s42-126 123-126zm0 227c63 0 89-41 89-101s-29-99-89-99c-61 0-89 39-89 99S79-25 140-24" id="ac"/><path d="M160-131c35 5 61 23 61 61C221 17 115-2 30 0v-248c76 3 177-17 177 60 0 33-19 50-47 57zm-97-11c50-1 110 9 110-42 0-47-63-36-110-37v79zm0 115c55-2 124 14 124-45 0-56-70-42-124-44v89" id="ad"/><g id="g"><use transform="matrix(0.05,0,0,0.05,0,0)" xlink:href="#R"/><use transform="matrix(0.05,0,0,0.05,12.950000000000001,0)" xlink:href="#ac"/><use transform="matrix(0.05,0,0,0.05,26.950000000000003,0)" xlink:href="#K"/><use transform="matrix(0.05,0,0,0.05,41.900000000000006,0)" xlink:href="#ad"/><use transform="matrix(0.05,0,0,0.05,53.900000000000006,0)" xlink:href="#O"/><use transform="matrix(0.05,0,0,0.05,66.85000000000001,0)" xlink:href="#N"/></g><path d="M185-189c-5-48-123-54-124 2 14 75 158 14 163 119 3 78-121 87-175 55-17-10-28-26-33-46l33-7c5 56 141 63 141-1 0-78-155-14-162-118-5-82 145-84 179-34 5 7 8 16 11 25" id="ae"/><g id="h"><use transform="matrix(0.05,0,0,0.05,0,0)" xlink:href="#U"/><use transform="matrix(0.05,0,0,0.05,12.950000000000001,0)" xlink:href="#O"/><use transform="matrix(0.05,0,0,0.05,25.900000000000002,0)" xlink:href="#N"/><use transform="matrix(0.05,0,0,0.05,37.900000000000006,0)" xlink:href="#Q"/><use transform="matrix(0.05,0,0,0.05,50.85000000000001,0)" xlink:href="#P"/><use transform="matrix(0.05,0,0,0.05,55.85,0)" xlink:href="#M"/><use transform="matrix(0.05,0,0,0.05,66.45,0)" xlink:href="#ac"/><use transform="matrix(0.05,0,0,0.05,80.45,0)" xlink:href="#ae"/></g><g id="i"><use transform="matrix(0.05,0,0,0.05,0,0)" xlink:href="#P"/><use transform="matrix(0.05,0,0,0.05,5,0)" xlink:href="#R"/><use transform="matrix(0.05,0,0,0.05,17.950000000000003,0)" xlink:href="#M"/></g><g id="j"><use transform="matrix(0.05,0,0,0.05,0,0)" xlink:href="#ae"/><use transform="matrix(0.05,0,0,0.05,12,0)" xlink:href="#N"/><use transform="matrix(0.05,0,0,0.05,24,0)" xlink:href="#U"/><use transform="matrix(0.05,0,0,0.05,36.95,0)" xlink:href="#U"/><use transform="matrix(0.05,0,0,0.05,49.900000000000006,0)" xlink:href="#P"/><use transform="matrix(0.05,0,0,0.05,54.900000000000006,0)" xlink:href="#ac"/><use transform="matrix(0.05,0,0,0.05,68.9,0)" xlink:href="#R"/></g><path d="M63-220v92h138v28H63V0H30v-248h175v28H63" id="af"/><g id="k"><use transform="matrix(0.05,0,0,0.05,0,0)" xlink:href="#S"/><use transform="matrix(0.05,0,0,0.05,12,0)" xlink:href="#O"/><use transform="matrix(0.05,0,0,0.05,24.950000000000003,0)" xlink:href="#ac"/><use transform="matrix(0.05,0,0,0.05,38.95,0)" xlink:href="#af"/><use transform="matrix(0.05,0,0,0.05,49.900000000000006,0)" xlink:href="#N"/><use transform="matrix(0.05,0,0,0.05,61.900000000000006,0)" xlink:href="#ae"/><use transform="matrix(0.05,0,0,0.05,73.9,0)" xlink:href="#ac"/><use transform="matrix(0.05,0,0,0.05,87.9,0)" xlink:href="#O"/></g><g id="l"><use transform="matrix(0.05,0,0,0.05,0,0)" xlink:href="#N"/><use transform="matrix(0.05,0,0,0.05,12,0)" xlink:href="#Q"/><use transform="matrix(0.05,0,0,0.05,24.950000000000003,0)" xlink:href="#P"/><use transform="matrix(0.05,0,0,0.05,29.950000000000003,0)" xlink:href="#af"/><use transform="matrix(0.05,0,0,0.05,40.900000000000006,0)" xlink:href="#P"/><use transform="matrix(0.05,0,0,0.05,45.900000000000006,0)" xlink:href="#U"/><use transform="matrix(0.05,0,0,0.05,58.85,0)" xlink:href="#P"/><use transform="matrix(0.05,0,0,0.05,63.85,0)" xlink:href="#ac"/></g><path d="M232-93c-1 65-40 97-104 97C67 4 28-28 28-90v-158h33c8 89-33 224 67 224 102 0 64-133 71-224h33v155" id="ag"/><g id="m"><use transform="matrix(0.05,0,0,0.05,0,0)" xlink:href="#L"/><use transform="matrix(0.05,0,0,0.05,12,0)" xlink:href="#ag"/><use transform="matrix(0.05,0,0,0.05,24.950000000000003,0)" xlink:href="#V"/><use transform="matrix(0.05,0,0,0.05,34.95,0)" xlink:href="#L"/></g><path d="M-5 72V49h209v23H-5" id="ah"/><g id="n"><use transform="matrix(0.05,0,0,0.05,0,0)" xlink:href="#P"/><use transform="matrix(0.05,0,0,0.05,5,0)" xlink:href="#Q"/><use transform="matrix(0.05,0,0,0.05,17.950000000000003,0)" xlink:href="#ah"/><use transform="matrix(0.05,0,0,0.05,27.950000000000003,0)" xlink:href="#N"/><use transform="matrix(0.05,0,0,0.05,39.95,0)" xlink:href="#Q"/><use transform="matrix(0.05,0,0,0.05,52.900000000000006,0)" xlink:href="#P"/><use transform="matrix(0.05,0,0,0.05,57.900000000000006,0)" xlink:href="#af"/><use transform="matrix(0.05,0,0,0.05,68.85000000000001,0)" xlink:href="#P"/><use transform="matrix(0.05,0,0,0.05,73.85000000000001,0)" xlink:href="#U"/><use transform="matrix(0.05,0,0,0.05,86.80000000000001,0)" xlink:href="#P"/><use transform="matrix(0.05,0,0,0.05,91.80000000000001,0)" xlink:href="#ac"/></g><g id="o"><use transform="matrix(0.05,0,0,0.05,0,0)" xlink:href="#af"/><use transform="matrix(0.05,0,0,0.05,10.950000000000001,0)" xlink:href="#T"/></g><path d="M24-231v-30h32v30H24zM24 0v-190h32V0H24" id="ai"/><path d="M96-169c-40 0-48 33-48 73s9 75 48 75c24 0 41-14 43-38l32 2c-6 37-31 61-74 61-59 0-76-41-82-99-10-93 101-131 147-64 4 7 5 14 7 22l-32 3c-4-21-16-35-41-35" id="aj"/><path d="M24 0v-261h32V0H24" id="ak"/><path d="M100-194c62-1 85 37 85 99 1 63-27 99-86 99S16-35 15-95c0-66 28-99 85-99zM99-20c44 1 53-31 53-75 0-43-8-75-51-75s-53 32-53 75 10 74 51 75" id="al"/><g id="p"><use transform="matrix(0.05,0,0,0.05,0,0)" xlink:href="#U"/><use transform="matrix(0.05,0,0,0.05,12.950000000000001,0)" xlink:href="#ai"/><use transform="matrix(0.05,0,0,0.05,16.900000000000002,0)" xlink:href="#aj"/><use transform="matrix(0.05,0,0,0.05,25.900000000000002,0)" xlink:href="#ak"/><use transform="matrix(0.05,0,0,0.05,29.85,0)" xlink:href="#al"/></g><g id="q"><use transform="matrix(0.05,0,0,0.05,0,0)" xlink:href="#Q"/><use transform="matrix(0.05,0,0,0.05,12.950000000000001,0)" xlink:href="#L"/><use transform="matrix(0.05,0,0,0.05,23.6,0)" xlink:href="#M"/><use transform="matrix(0.05,0,0,0.05,34.2,0)" xlink:href="#ac"/><use transform="matrix(0.05,0,0,0.05,48.2,0)" xlink:href="#ae"/></g><g id="r"><use transform="matrix(0.05,0,0,0.05,0,0)" xlink:href="#Q"/><use transform="matrix(0.05,0,0,0.05,12.950000000000001,0)" xlink:href="#P"/><use transform="matrix(0.05,0,0,0.05,17.950000000000003,0)" xlink:href="#L"/><use transform="matrix(0.05,0,0,0.05,29.950000000000003,0)" xlink:href="#ae"/></g><g id="s"><use transform="matrix(0.05,0,0,0.05,0,0)" xlink:href="#X"/><use transform="matrix(0.05,0,0,0.05,12.950000000000001,0)" xlink:href="#ac"/><use transform="matrix(0.05,0,0,0.05,26.950000000000003,0)" xlink:href="#O"/><use transform="matrix(0.05,0,0,0.05,39.900000000000006,0)" xlink:href="#L"/><use transform="matrix(0.05,0,0,0.05,51.900000000000006,0)" xlink:href="#O"/><use transform="matrix(0.05,0,0,0.05,64.85000000000001,0)" xlink:href="#P"/><use transform="matrix(0.05,0,0,0.05,69.85000000000001,0)" xlink:href="#ac"/></g><g id="t"><use transform="matrix(0.05,0,0,0.05,0,0)" xlink:href="#U"/><use transform="matrix(0.05,0,0,0.05,12.950000000000001,0)" xlink:href="#ag"/><use transform="matrix(0.05,0,0,0.05,25.900000000000002,0)" xlink:href="#O"/><use transform="matrix(0.05,0,0,0.05,38.85,0)" xlink:href="#ae"/><use transform="matrix(0.05,0,0,0.05,50.85,0)" xlink:href="#ac"/></g><g id="u"><use transform="matrix(0.05,0,0,0.05,0,0)" xlink:href="#R"/><use transform="matrix(0.05,0,0,0.05,12.950000000000001,0)" xlink:href="#O"/><use transform="matrix(0.05,0,0,0.05,25.900000000000002,0)" xlink:href="#U"/></g><g id="v"><use transform="matrix(0.05,0,0,0.05,0,0)" xlink:href="#U"/><use transform="matrix(0.05,0,0,0.05,12.950000000000001,0)" xlink:href="#ag"/><use transform="matrix(0.05,0,0,0.05,25.900000000000002,0)" xlink:href="#S"/><use transform="matrix(0.05,0,0,0.05,37.900000000000006,0)" xlink:href="#ac"/><use transform="matrix(0.05,0,0,0.05,51.900000000000006,0)" xlink:href="#ae"/></g><g id="w"><use transform="matrix(0.05,0,0,0.05,0,0)" xlink:href="#U"/><use transform="matrix(0.05,0,0,0.05,12.950000000000001,0)" xlink:href="#ag"/><use transform="matrix(0.05,0,0,0.05,25.900000000000002,0)" xlink:href="#S"/><use transform="matrix(0.05,0,0,0.05,37.900000000000006,0)" xlink:href="#ac"/><use transform="matrix(0.05,0,0,0.05,51.900000000000006,0)" xlink:href="#ae"/><use transform="matrix(0.05,0,0,0.05,63.900000000000006,0)" xlink:href="#ah"/><use transform="matrix(0.05,0,0,0.05,73.9,0)" xlink:href="#Q"/><use transform="matrix(0.05,0,0,0.05,86.85000000000001,0)" xlink:href="#P"/><use transform="matrix(0.05,0,0,0.05,91.85000000000001,0)" xlink:href="#ae"/><use transform="matrix(0.05,0,0,0.05,103.85000000000001,0)" xlink:href="#S"/><use transform="matrix(0.05,0,0,0.05,115.85000000000001,0)" xlink:href="#ac"/><use transform="matrix(0.05,0,0,0.05,129.85000000000002,0)" xlink:href="#R"/><use transform="matrix(0.05,0,0,0.05,142.8,0)" xlink:href="#P"/><use transform="matrix(0.05,0,0,0.05,147.8,0)" xlink:href="#ad"/><use transform="matrix(0.05,0,0,0.05,159.8,0)" xlink:href="#V"/><use transform="matrix(0.05,0,0,0.05,169.8,0)" xlink:href="#N"/><use transform="matrix(0.05,0,0,0.05,181.8,0)" xlink:href="#ae"/></g><g id="x"><use transform="matrix(0.05,0,0,0.05,0,0)" xlink:href="#P"/><use transform="matrix(0.05,0,0,0.05,5,0)" xlink:href="#Q"/><use transform="matrix(0.05,0,0,0.05,17.950000000000003,0)" xlink:href="#ah"/><use transform="matrix(0.05,0,0,0.05,27.950000000000003,0)" xlink:href="#K"/><use transform="matrix(0.05,0,0,0.05,42.900000000000006,0)" xlink:href="#L"/><use transform="matrix(0.05,0,0,0.05,53.550000000000004,0)" xlink:href="#M"/><use transform="matrix(0.05,0,0,0.05,64.5,0)" xlink:href="#N"/><use transform="matrix(0.05,0,0,0.05,76.5,0)" xlink:href="#O"/><use transform="matrix(0.05,0,0,0.05,89.45,0)" xlink:href="#P"/><use transform="matrix(0.05,0,0,0.05,94.45,0)" xlink:href="#L"/></g><g id="y"><use transform="matrix(0.05,0,0,0.05,0,0)" xlink:href="#P"/><use transform="matrix(0.05,0,0,0.05,5,0)" xlink:href="#Q"/><use transform="matrix(0.05,0,0,0.05,17.950000000000003,0)" xlink:href="#ah"/><use transform="matrix(0.05,0,0,0.05,27.950000000000003,0)" xlink:href="#ae"/><use transform="matrix(0.05,0,0,0.05,39.95,0)" xlink:href="#N"/><use transform="matrix(0.05,0,0,0.05,51.95,0)" xlink:href="#U"/><use transform="matrix(0.05,0,0,0.05,64.9,0)" xlink:href="#U"/><use transform="matrix(0.05,0,0,0.05,77.85000000000001,0)" xlink:href="#P"/><use transform="matrix(0.05,0,0,0.05,82.85000000000001,0)" xlink:href="#ac"/><use transform="matrix(0.05,0,0,0.05,96.85000000000001,0)" xlink:href="#R"/></g><g id="z"><use transform="matrix(0.05,0,0,0.05,0,0)" xlink:href="#P"/><use transform="matrix(0.05,0,0,0.05,5,0)" xlink:href="#Q"/><use transform="matrix(0.05,0,0,0.05,17.950000000000003,0)" xlink:href="#ah"/><use transform="matrix(0.05,0,0,0.05,27.950000000000003,0)" xlink:href="#S"/><use transform="matrix(0.05,0,0,0.05,39.95,0)" xlink:href="#O"/><use transform="matrix(0.05,0,0,0.05,52.900000000000006,0)" xlink:href="#ac"/><use transform="matrix(0.05,0,0,0.05,66.9,0)" xlink:href="#af"/><use transform="matrix(0.05,0,0,0.05,77.85000000000001,0)" xlink:href="#N"/><use transform="matrix(0.05,0,0,0.05,89.85000000000001,0)" xlink:href="#ae"/><use transform="matrix(0.05,0,0,0.05,101.85000000000001,0)" xlink:href="#ac"/><use transform="matrix(0.05,0,0,0.05,115.85000000000001,0)" xlink:href="#O"/></g><g id="A"><use transform="matrix(0.05,0,0,0.05,0,0)" xlink:href="#P"/><use transform="matrix(0.05,0,0,0.05,5,0)" xlink:href="#R"/><use transform="matrix(0.05,0,0,0.05,17.950000000000003,0)" xlink:href="#M"/></g><g id="B"><use transform="matrix(0.05,0,0,0.05,0,0)" xlink:href="#P"/><use transform="matrix(0.05,0,0,0.05,5,0)" xlink:href="#Q"/><use transform="matrix(0.05,0,0,0.05,17.950000000000003,0)" xlink:href="#ah"/><use transform="matrix(0.05,0,0,0.05,27.950000000000003,0)" xlink:href="#U"/><use transform="matrix(0.05,0,0,0.05,40.900000000000006,0)" xlink:href="#P"/><use transform="matrix(0.05,0,0,0.05,45.900000000000006,0)" xlink:href="#U"/><use transform="matrix(0.05,0,0,0.05,58.85,0)" xlink:href="#V"/><use transform="matrix(0.05,0,0,0.05,68.85000000000001,0)" xlink:href="#ac"/></g><path d="M143 4C61 4 22-44 18-125c-5-107 100-154 193-111 17 8 29 25 37 43l-32 9c-13-25-37-40-76-40-61 0-88 39-88 99 0 61 29 100 91 101 35 0 62-11 79-27v-45h-74v-28h105v86C228-13 192 4 143 4" id="am"/><g id="C"><use transform="matrix(0.05,0,0,0.05,0,0)" xlink:href="#L"/><use transform="matrix(0.05,0,0,0.05,12,0)" xlink:href="#am"/><use transform="matrix(0.05,0,0,0.05,26,0)" xlink:href="#N"/><use transform="matrix(0.05,0,0,0.05,38,0)" xlink:href="#R"/><use transform="matrix(0.05,0,0,0.05,50.95,0)" xlink:href="#Q"/><use transform="matrix(0.05,0,0,0.05,63.900000000000006,0)" xlink:href="#L"/><use transform="matrix(0.05,0,0,0.05,75.9,0)" xlink:href="#ah"/><use transform="matrix(0.05,0,0,0.05,85.9,0)" xlink:href="#U"/><use transform="matrix(0.05,0,0,0.05,98.85000000000001,0)" xlink:href="#ag"/><use transform="matrix(0.05,0,0,0.05,111.80000000000001,0)" xlink:href="#O"/><use transform="matrix(0.05,0,0,0.05,124.75,0)" xlink:href="#ae"/><use transform="matrix(0.05,0,0,0.05,136.75,0)" xlink:href="#ac"/></g><g id="D"><use transform="matrix(0.05,0,0,0.05,0,0)" xlink:href="#P"/><use transform="matrix(0.05,0,0,0.05,5,0)" xlink:href="#Q"/><use transform="matrix(0.05,0,0,0.05,17.950000000000003,0)" xlink:href="#ah"/><use transform="matrix(0.05,0,0,0.05,27.950000000000003,0)" xlink:href="#U"/><use transform="matrix(0.05,0,0,0.05,40.900000000000006,0)" xlink:href="#ag"/><use transform="matrix(0.05,0,0,0.05,53.85,0)" xlink:href="#O"/><use transform="matrix(0.05,0,0,0.05,66.80000000000001,0)" xlink:href="#ae"/><use transform="matrix(0.05,0,0,0.05,78.80000000000001,0)" xlink:href="#ac"/></g><g id="E"><use transform="matrix(0.05,0,0,0.05,0,0)" xlink:href="#P"/><use transform="matrix(0.05,0,0,0.05,5,0)" xlink:href="#Q"/><use transform="matrix(0.05,0,0,0.05,17.950000000000003,0)" xlink:href="#ah"/><use transform="matrix(0.05,0,0,0.05,27.950000000000003,0)" xlink:href="#X"/><use transform="matrix(0.05,0,0,0.05,40.900000000000006,0)" xlink:href="#ac"/><use transform="matrix(0.05,0,0,0.05,54.900000000000006,0)" xlink:href="#O"/><use transform="matrix(0.05,0,0,0.05,67.85000000000001,0)" xlink:href="#L"/><use transform="matrix(0.05,0,0,0.05,79.85000000000001,0)" xlink:href="#O"/><use transform="matrix(0.05,0,0,0.05,92.80000000000001,0)" xlink:href="#P"/><use transform="matrix(0.05,0,0,0.05,97.80000000000001,0)" xlink:href="#ac"/></g><g id="F"><use transform="matrix(0.05,0,0,0.05,0,0)" xlink:href="#P"/><use transform="matrix(0.05,0,0,0.05,5,0)" xlink:href="#Q"/><use transform="matrix(0.05,0,0,0.05,17.950000000000003,0)" xlink:href="#ah"/><use transform="matrix(0.05,0,0,0.05,27.950000000000003,0)" xlink:href="#Q"/><use transform="matrix(0.05,0,0,0.05,40.900000000000006,0)" xlink:href="#P"/><use transform="matrix(0.05,0,0,0.05,45.900000000000006,0)" xlink:href="#L"/><use transform="matrix(0.05,0,0,0.05,57.900000000000006,0)" xlink:href="#ae"/></g><g id="G"><use transform="matrix(0.05,0,0,0.05,0,0)" xlink:href="#P"/><use transform="matrix(0.05,0,0,0.05,5,0)" xlink:href="#Q"/><use transform="matrix(0.05,0,0,0.05,17.950000000000003,0)" xlink:href="#ah"/><use transform="matrix(0.05,0,0,0.05,27.950000000000003,0)" xlink:href="#L"/><use transform="matrix(0.05,0,0,0.05,39.95,0)" xlink:href="#ag"/><use transform="matrix(0.05,0,0,0.05,52.900000000000006,0)" xlink:href="#V"/><use transform="matrix(0.05,0,0,0.05,62.900000000000006,0)" xlink:href="#L"/></g><g id="H"><use transform="matrix(0.05,0,0,0.05,0,0)" xlink:href="#U"/><use transform="matrix(0.05,0,0,0.05,12.950000000000001,0)" xlink:href="#L"/><use transform="matrix(0.05,0,0,0.05,24.950000000000003,0)" xlink:href="#O"/><use transform="matrix(0.05,0,0,0.05,37.900000000000006,0)" xlink:href="#O"/><use transform="matrix(0.05,0,0,0.05,50.85000000000001,0)" xlink:href="#N"/><use transform="matrix(0.05,0,0,0.05,62.85,0)" xlink:href="#O"/><use transform="matrix(0.05,0,0,0.05,75.80000000000001,0)" xlink:href="#L"/></g><g id="I"><use transform="matrix(0.05,0,0,0.05,0,0)" xlink:href="#U"/><use transform="matrix(0.05,0,0,0.05,12.950000000000001,0)" xlink:href="#L"/><use transform="matrix(0.05,0,0,0.05,23.6,0)" xlink:href="#M"/><use transform="matrix(0.05,0,0,0.05,33.2,0)" xlink:href="#L"/><use transform="matrix(0.05,0,0,0.05,45.2,0)" xlink:href="#V"/><use transform="matrix(0.05,0,0,0.05,55.2,0)" xlink:href="#ac"/><use transform="matrix(0.05,0,0,0.05,69.2,0)" xlink:href="#am"/><use transform="matrix(0.05,0,0,0.05,83.2,0)" xlink:href="#ac"/><use transform="matrix(0.05,0,0,0.05,97.2,0)" xlink:href="#ah"/><use transform="matrix(0.05,0,0,0.05,107.2,0)" xlink:href="#U"/><use transform="matrix(0.05,0,0,0.05,120.15,0)" xlink:href="#L"/><use transform="matrix(0.05,0,0,0.05,132.15,0)" xlink:href="#O"/><use transform="matrix(0.05,0,0,0.05,145.1,0)" xlink:href="#O"/><use transform="matrix(0.05,0,0,0.05,158.04999999999998,0)" xlink:href="#N"/><use transform="matrix(0.05,0,0,0.05,170.04999999999998,0)" xlink:href="#O"/><use transform="matrix(0.05,0,0,0.05,182.99999999999997,0)" xlink:href="#L"/></g><g id="J"><use transform="matrix(0.05,0,0,0.05,0,0)" xlink:href="#P"/><use transform="matrix(0.05,0,0,0.05,5,0)" xlink:href="#Q"/><use transform="matrix(0.05,0,0,0.05,17.950000000000003,0)" xlink:href="#ah"/><use transform="matrix(0.05,0,0,0.05,27.950000000000003,0)" xlink:href="#U"/><use transform="matrix(0.05,0,0,0.05,40.900000000000006,0)" xlink:href="#L"/><use transform="matrix(0.05,0,0,0.05,52.900000000000006,0)" xlink:href="#O"/><use transform="matrix(0.05,0,0,0.05,65.85000000000001,0)" xlink:href="#O"/><use transform="matrix(0.05,0,0,0.05,78.80000000000001,0)" xlink:href="#N"/><use transform="matrix(0.05,0,0,0.05,90.80000000000001,0)" xlink:href="#O"/><use transform="matrix(0.05,0,0,0.05,103.75,0)" xlink:href="#L"/></g></defs></g></svg>