<svg xmlns="http://www.w3.org/2000/svg" xmlns:xlink="http://www.w3.org/1999/xlink" xmlns:lucid="lucid" width="1440" height="1089"><g transform="translate(20 -14)" lucid:page-tab-id="0_0"><path d="M0 0h1870.4v1323.2H0z" fill="#fff"/><path d="M200 125c0-2.76 2.24-5 5-5h150c2.76 0 5 2.24 5 5v50c0 2.76-2.24 5-5 5H205c-2.76 0-5-2.24-5-5z" stroke="#666" stroke-width="2" fill="#b600ff"/><use xlink:href="#a" transform="matrix(1,0,0,1,205,125) translate(35.75 28.6)"/><path d="M310 40c11.05 0 20 6.27 20 14s-8.95 14-20 14h-60c-11.05 0-20-6.27-20-14s8.95-14 20-14z" stroke="#666" stroke-width="2" fill="#b600ff"/><use xlink:href="#b" transform="matrix(1,0,0,1,235,45) translate(36.025 14.4)"/><path d="M440 40c11.05 0 20 7.16 20 16s-8.95 16-20 16h-60c-11.05 0-20-7.16-20-16s8.95-16 20-16z" stroke="#666" stroke-width="2" fill="#b600ff"/><use xlink:href="#c" transform="matrix(1,0,0,1,365,45) translate(16.2 14.6)"/><path d="M176 34c13.25 0 24 8.95 24 20s-10.75 20-24 20h-72c-13.25 0-24-8.95-24-20s10.75-20 24-20z" stroke="#666" stroke-width="2" fill="#b600ff"/><use xlink:href="#d" transform="matrix(1,0,0,1,85,39) translate(15.574999999999996 18.6)"/><path d="M126.4 134c11.93 0 21.6 7.16 21.6 16s-9.67 16-21.6 16H61.6c-11.93 0-21.6-7.16-21.6-16s9.67-16 21.6-16z" stroke="#666" stroke-width="2" fill="#b600ff"/><use xlink:href="#e" transform="matrix(1,0,0,1,45,139) translate(2.7749999999999986 14.6)"/><path d="M280 118V70" stroke="#999" stroke-width="2" fill="none"/><path d="M281 119h-2v-1.03h2zM281 70.03h-2V69h2z" fill="#999"/><path d="M358 56h-11c-2.76 0-5 2.24-5 5v57" stroke="#999" stroke-width="2" fill="none"/><path d="M359 55.95l.03 1.05h-1.06v-2h1.15zM343 119h-2v-1.03h2z" fill="#999"/><path d="M202 54h13.67c2.76 0 5 2.24 5 5v59" stroke="#999" stroke-width="2" fill="none"/><path d="M202.03 55h-1.13l.1-.98-.05-1.02h1.08zM221.67 119h-2v-1.03h2z" fill="#999"/><path d="M150 150h48" stroke="#999" stroke-width="2" fill="none"/><path d="M150.03 151h-1.14l.1-1-.1-1h1.13zM199 151h-1.03v-2H199z" fill="#999"/><path d="M120 382c0-2.76 2.24-5 5-5h150c2.76 0 5 2.24 5 5v50c0 2.76-2.24 5-5 5H125c-2.76 0-5-2.24-5-5z" stroke="#666" stroke-width="2" fill="#fef900"/><use xlink:href="#f" transform="matrix(1,0,0,1,125,382) translate(34.074999999999996 28.6)"/><path d="M230 297c11.05 0 20 6.27 20 14s-8.95 14-20 14h-60c-11.05 0-20-6.27-20-14s8.95-14 20-14z" stroke="#666" stroke-width="2" fill="#fef900"/><use xlink:href="#b" transform="matrix(1,0,0,1,155,302) translate(36.025 14.4)"/><path d="M96 291c13.25 0 24 8.95 24 20s-10.75 20-24 20H24c-13.25 0-24-8.95-24-20s10.75-20 24-20z" stroke="#666" stroke-width="2" fill="#fef900"/><use xlink:href="#d" transform="matrix(1,0,0,1,5,296) translate(15.574999999999996 18.6)"/><path d="M200 375v-48" stroke="#999" stroke-width="2" fill="none"/><path d="M201 376h-2v-1.03h2zM201 327.03h-2V326h2z" fill="#999"/><path d="M122 311h13.67c2.76 0 5 2.24 5 5v59" stroke="#999" stroke-width="2" fill="none"/><path d="M122.03 312h-1.13l.1-.98-.05-1.02h1.08zM141.67 376h-2v-1.03h2z" fill="#999"/><path d="M120 565c0-2.76 2.24-5 5-5h150c2.76 0 5 2.24 5 5v50c0 2.76-2.24 5-5 5H125c-2.76 0-5-2.24-5-5z" stroke="#666" stroke-width="2" fill="#ff0015"/><use xlink:href="#g" transform="matrix(1,0,0,1,125,565) translate(24.574999999999996 28.6)"/><path d="M230 480c11.05 0 20 6.27 20 14s-8.95 14-20 14h-60c-11.05 0-20-6.27-20-14s8.95-14 20-14z" stroke="#666" stroke-width="2" fill="#ff0015"/><use xlink:href="#b" transform="matrix(1,0,0,1,155,485) translate(36.025 14.4)"/><path d="M96 474c13.25 0 24 8.95 24 20s-10.75 20-24 20H24c-13.25 0-24-8.95-24-20s10.75-20 24-20z" stroke="#666" stroke-width="2" fill="#ff0015"/><use xlink:href="#d" transform="matrix(1,0,0,1,5,479) translate(15.574999999999996 18.6)"/><path d="M200 558v-48" stroke="#999" stroke-width="2" fill="none"/><path d="M201 559h-2v-1.03h2zM201 510.03h-2V509h2z" fill="#999"/><path d="M122 494h13.67c2.76 0 5 2.24 5 5v59" stroke="#999" stroke-width="2" fill="none"/><path d="M122.03 495h-1.13l.1-.98-.05-1.02h1.08zM141.67 559h-2v-1.03h2z" fill="#999"/><path d="M630 817c0-2.76 2.24-5 5-5h150c2.76 0 5 2.24 5 5v50c0 2.76-2.24 5-5 5H635c-2.76 0-5-2.24-5-5z" stroke="#666" stroke-width="2" fill="#b391b5"/><use xlink:href="#h" transform="matrix(1,0,0,1,635,817) translate(47.55 28.6)"/><path d="M740 732c11.05 0 20 6.27 20 14s-8.95 14-20 14h-60c-11.05 0-20-6.27-20-14s8.95-14 20-14z" stroke="#666" stroke-width="2" fill="#b391b5"/><use xlink:href="#b" transform="matrix(1,0,0,1,665,737) translate(36.025 14.4)"/><path d="M606 726c13.25 0 24 8.95 24 20s-10.75 20-24 20h-72c-13.25 0-24-8.95-24-20s10.75-20 24-20z" stroke="#666" stroke-width="2" fill="#b391b5"/><use xlink:href="#i" transform="matrix(1,0,0,1,515,731) translate(24.9 18.6)"/><path d="M710 810v-48" stroke="#999" stroke-width="2" fill="none"/><path d="M711 811h-2v-1.03h2zM711 762.03h-2V761h2z" fill="#999"/><path d="M632 746h13.67c2.76 0 5 2.24 5 5v59" stroke="#999" stroke-width="2" fill="none"/><path d="M632.03 747h-1.13l.1-.98-.05-1.02h1.08zM651.67 811h-2v-1.03h2z" fill="#999"/><path d="M660 125c0-2.76 2.24-5 5-5h150c2.76 0 5 2.24 5 5v50c0 2.76-2.24 5-5 5H665c-2.76 0-5-2.24-5-5z" stroke="#666" stroke-width="2" fill="#ff00bf"/><use xlink:href="#j" transform="matrix(1,0,0,1,665,125) translate(31.099999999999994 28.6)"/><path d="M770 40c11.05 0 20 6.27 20 14s-8.95 14-20 14h-60c-11.05 0-20-6.27-20-14s8.95-14 20-14z" stroke="#666" stroke-width="2" fill="#ff00bf"/><use xlink:href="#b" transform="matrix(1,0,0,1,695,45) translate(36.025 14.4)"/><path d="M636 34c13.25 0 24 8.95 24 20s-10.75 20-24 20h-72c-13.25 0-24-8.95-24-20s10.75-20 24-20z" stroke="#666" stroke-width="2" fill="#ff00bf"/><use xlink:href="#d" transform="matrix(1,0,0,1,545,39) translate(15.574999999999996 18.6)"/><path d="M740 118V70" stroke="#999" stroke-width="2" fill="none"/><path d="M741 119h-2v-1.03h2zM741 70.03h-2V69h2z" fill="#999"/><path d="M662 54h13.67c2.76 0 5 2.24 5 5v59" stroke="#999" stroke-width="2" fill="none"/><path d="M662.03 55h-1.13l.1-.98-.05-1.02h1.08zM681.67 119h-2v-1.03h2z" fill="#999"/><path d="M1220 551c0-2.76 2.24-5 5-5h150c2.76 0 5 2.24 5 5v50c0 2.76-2.24 5-5 5h-150c-2.76 0-5-2.24-5-5z" stroke="#666" stroke-width="2" fill="#00ffc3"/><use xlink:href="#k" transform="matrix(1,0,0,1,1225,551) translate(54.025 28.6)"/><path d="M1330 466c11.05 0 20 6.27 20 14s-8.95 14-20 14h-60c-11.05 0-20-6.27-20-14s8.95-14 20-14z" stroke="#666" stroke-width="2" fill="#00ffc3"/><use xlink:href="#b" transform="matrix(1,0,0,1,1255,471) translate(36.025 14.4)"/><path d="M1196 460c13.25 0 24 8.95 24 20s-10.75 20-24 20h-72c-13.25 0-24-8.95-24-20s10.75-20 24-20z" stroke="#666" stroke-width="2" fill="#00ffc3"/><use xlink:href="#i" transform="matrix(1,0,0,1,1105,465) translate(24.9 18.6)"/><path d="M1300 544v-48" stroke="#999" stroke-width="2" fill="none"/><path d="M1301 545h-2v-1.03h2zM1301 496.03h-2V495h2z" fill="#999"/><path d="M1222 480h13.67c2.76 0 5 2.24 5 5v59" stroke="#999" stroke-width="2" fill="none"/><path d="M1222.03 481h-1.13l.1-.98-.05-1.02h1.08zM1241.67 545h-2v-1.03h2z" fill="#999"/><path d="M1190 340.06c0-2.77 2.24-5 5-5h150c2.76 0 5 2.23 5 5v50c0 2.76-2.24 5-5 5h-150c-2.76 0-5-2.24-5-5z" stroke="#666" stroke-width="2" fill="#a3d977"/><use xlink:href="#l" transform="matrix(1,0,0,1,1195,340.0552420299133) translate(33.074999999999996 28.6)"/><path d="M1300 255.06c11.05 0 20 6.26 20 14 0 7.73-8.95 14-20 14h-60c-11.05 0-20-6.27-20-14 0-7.74 8.95-14 20-14z" stroke="#666" stroke-width="2" fill="#a3d977"/><use xlink:href="#b" transform="matrix(1,0,0,1,1225,260.0552420299133) translate(36.025 14.4)"/><path d="M1166 249.06c13.25 0 24 8.95 24 20 0 11.04-10.75 20-24 20h-72c-13.25 0-24-8.96-24-20 0-11.05 10.75-20 24-20z" stroke="#666" stroke-width="2" fill="#a3d977"/><use xlink:href="#i" transform="matrix(1,0,0,1,1075,254.0552420299133) translate(24.9 18.6)"/><path d="M1270 333.06v-48" stroke="#999" stroke-width="2" fill="none"/><path d="M1271 334.06h-2v-1.03h2zM1271 285.08h-2v-1.02h2z" fill="#999"/><path d="M1192 269.06h13.67c2.76 0 5 2.23 5 5v59" stroke="#999" stroke-width="2" fill="none"/><path d="M1192.03 270.06h-1.13l.1-.98-.05-1.02h1.08zM1211.67 334.06h-2v-1.03h2z" fill="#999"/><path d="M1180 1028c0-2.76 2.24-5 5-5h150c2.76 0 5 2.24 5 5v50c0 2.76-2.24 5-5 5h-150c-2.76 0-5-2.24-5-5z" stroke="#666" stroke-width="2" fill="#2d8af6"/><use xlink:href="#m" transform="matrix(1,0,0,1,1185,1028) translate(36.074999999999996 28.6)"/><path d="M1290 943c11.05 0 20 6.27 20 14s-8.95 14-20 14h-60c-11.05 0-20-6.27-20-14s8.95-14 20-14z" stroke="#666" stroke-width="2" fill="#2d8af6"/><use xlink:href="#b" transform="matrix(1,0,0,1,1215,948) translate(36.025 14.4)"/><path d="M1156 937c13.25 0 24 8.95 24 20s-10.75 20-24 20h-72c-13.25 0-24-8.95-24-20s10.75-20 24-20z" stroke="#666" stroke-width="2" fill="#2d8af6"/><use xlink:href="#d" transform="matrix(1,0,0,1,1065,942) translate(15.574999999999996 18.6)"/><path d="M1260 1021v-48" stroke="#999" stroke-width="2" fill="none"/><path d="M1261 1022h-2v-1.03h2zM1261 973.03h-2V972h2z" fill="#999"/><path d="M1182 957h13.67c2.76 0 5 2.24 5 5v59" stroke="#999" stroke-width="2" fill="none"/><path d="M1182.03 958h-1.13l.1-.98-.05-1.02h1.08zM1201.67 1022h-2v-1.03h2z" fill="#999"/><path d="M1240 760.97c0-2.76 2.24-5 5-5h150c2.76 0 5 2.24 5 5v50c0 2.76-2.24 5-5 5h-150c-2.76 0-5-2.24-5-5z" stroke="#666" stroke-width="2" fill="#5abaa7"/><use xlink:href="#n" transform="matrix(1,0,0,1,1245,760.9709572496931) translate(51.525 28.6)"/><path d="M1350 675.97c11.05 0 20 6.27 20 14s-8.95 14-20 14h-60c-11.05 0-20-6.27-20-14s8.95-14 20-14z" stroke="#666" stroke-width="2" fill="#5abaa7"/><use xlink:href="#b" transform="matrix(1,0,0,1,1275,680.9709572496931) translate(36.025 14.4)"/><path d="M1216 669.97c13.25 0 24 8.96 24 20 0 11.05-10.75 20-24 20h-72c-13.25 0-24-8.95-24-20 0-11.04 10.75-20 24-20z" stroke="#666" stroke-width="2" fill="#5abaa7"/><use xlink:href="#d" transform="matrix(1,0,0,1,1125,674.9709572496931) translate(15.574999999999996 18.6)"/><path d="M1320 753.97v-48" stroke="#999" stroke-width="2" fill="none"/><path d="M1321 754.97h-2v-1.02h2zM1321 706h-2v-1.03h2z" fill="#999"/><path d="M1242 689.97h13.67c2.76 0 5 2.24 5 5v59" stroke="#999" stroke-width="2" fill="none"/><path d="M1242.03 690.97h-1.13l.1-.97-.05-1.03h1.08zM1261.67 754.97h-2v-1.02h2z" fill="#999"/><path d="M975.25 555.57c2.62-.87 6.88-.87 9.5 0l90.5 29.86c2.62.87 2.62 2.27 0 3.14l-90.5 29.86c-2.62.87-6.88.87-9.5 0l-90.5-29.86c-2.62-.87-2.62-2.27 0-3.14z" stroke="#666" stroke-width="2" fill="#f5b5c8"/><use xlink:href="#o" transform="matrix(1,0,0,1,885,559) translate(19.625 31.6)"/><path d="M640 342c0-2.76 2.24-5 5-5h150c2.76 0 5 2.24 5 5v50c0 2.76-2.24 5-5 5H645c-2.76 0-5-2.24-5-5z" stroke="#666" stroke-width="2" fill="#6e00ff"/><use xlink:href="#p" transform="matrix(1,0,0,1,645,342) translate(42.575 28.6)"/><path d="M750 257c11.05 0 20 6.27 20 14s-8.95 14-20 14h-60c-11.05 0-20-6.27-20-14s8.95-14 20-14z" stroke="#666" stroke-width="2" fill="#6e00ff"/><use xlink:href="#b" transform="matrix(1,0,0,1,675,262) translate(36.025 14.4)"/><path d="M880 257c11.05 0 20 7.16 20 16s-8.95 16-20 16h-60c-11.05 0-20-7.16-20-16s8.95-16 20-16z" stroke="#666" stroke-width="2" fill="#6e00ff"/><use xlink:href="#q" transform="matrix(1,0,0,1,805,262) translate(13.049999999999997 14.6)"/><path d="M616 251c13.25 0 24 8.95 24 20s-10.75 20-24 20h-72c-13.25 0-24-8.95-24-20s10.75-20 24-20z" stroke="#666" stroke-width="2" fill="#6e00ff"/><use xlink:href="#r" transform="matrix(1,0,0,1,525,256) translate(35.575 18.6)"/><path d="M720 335v-48" stroke="#999" stroke-width="2" fill="none"/><path d="M721 336h-2v-1.03h2zM721 287.03h-2V286h2z" fill="#999"/><path d="M798 273h-11c-2.76 0-5 2.24-5 5v57" stroke="#999" stroke-width="2" fill="none"/><path d="M799 272.95l.03 1.05h-1.06v-2h1.15zM783 336h-2v-1.03h2z" fill="#999"/><path d="M642 271h13.67c2.76 0 5 2.24 5 5v59" stroke="#999" stroke-width="2" fill="none"/><path d="M642.03 272h-1.13l.1-.98-.05-1.02h1.08zM661.67 336h-2v-1.03h2z" fill="#999"/><path d="M487.32 167.76c2.58-.97 6.78-.97 9.36 0l70.64 26.48c2.58.97 2.58 2.55 0 3.52l-70.64 26.48c-2.58.97-6.78.97-9.36 0l-70.64-26.48c-2.58-.97-2.58-2.55 0-3.52z" stroke="#666" stroke-width="2" fill="#fff"/><use xlink:href="#s" transform="matrix(1,0,0,1,417,171) translate(48.55 28.6)"/><path d="M387.5 230.84l.82 2.5 2 1.46 1.26.2h16.5l2.5-.82 1.47-2 .2-1.26V197h2v34.08l-.3 1.9-2.13 2.9-3.4 1.12h-17l-1.9-.3-2.9-2.13-1.12-3.4v-34.92h2zm-2.43-80.73l2.12 2.92.3 1.9v19.73h-2v-19.57l-.2-1.26-1.46-2-2.5-.82H362v-2h19.66z" fill="#999"/><path d="M362.03 151H361v-2h1.03zM414.25 195.1l-1 .9 1 .9v.13h-2V193h2z" fill="#999"/><use xlink:href="#t" transform="matrix(1,0,0,1,381.5,174.65238323899416) translate(0.004999999999999893 14.4)"/><path d="M638 371.94v2H498.48v-2zm-145-9.8h-2v-135.2h2z" fill="#999"/><path d="M492.78 225.96l.22-.03v1.04h-2v-1.05zM639 373.94h-1.03v-2H639z" fill="#999"/><use xlink:href="#u" transform="matrix(1,0,0,1,485.525,362.14191449938613) translate(0.004999999999999893 14.4)"/><path d="M405.32 378.76c2.58-.97 6.78-.97 9.36 0l70.64 26.48c2.58.97 2.58 2.55 0 3.52l-70.64 26.48c-2.58.97-6.78.97-9.36 0l-70.64-26.48c-2.58-.97-2.58-2.55 0-3.52z" stroke="#666" stroke-width="2" fill="#fff"/><use xlink:href="#s" transform="matrix(1,0,0,1,335,382) translate(48.55 28.6)"/><path d="M298.33 408H282v-2h16.33zm31.92 0h-21.92v-2h21.92z" fill="#999"/><path d="M282.03 408H281v-2h1.03zM331.25 407l1.1 1h-2.12v-2h2.13z" fill="#999"/><use xlink:href="#t" transform="matrix(1,0,0,1,298.3333333333333,396.2) translate(0.004999999999999893 14.4)"/><path d="M597.9 403.5H492.45l-1.9.8-.88 2.08-1.85-.76 1.2-2.86 3.03-1.26H597.9zm123.02-4.12l-1.18 2.86-3.04 1.26H610.85v-2H716.3l1.9-.8.88-2.08z" fill="#999"/><path d="M489.75 410h-2v-2.1l1-.9-1-.9v-.13h2zM721 399.03h-2V398h2z" fill="#999"/><use xlink:href="#u" transform="matrix(1,0,0,1,597.8987731024275,391.7) translate(0.004999999999999893 14.4)"/><path d="M455.32 561.76c2.58-.97 6.78-.97 9.36 0l70.64 26.48c2.58.97 2.58 2.55 0 3.52l-70.64 26.48c-2.58.97-6.78.97-9.36 0l-70.64-26.48c-2.58-.97-2.58-2.55 0-3.52z" stroke="#666" stroke-width="2" fill="#fff"/><use xlink:href="#s" transform="matrix(1,0,0,1,385,565) translate(48.55 28.6)"/><path d="M326.13 591H282v-2h44.13zm54.12 0h-44.12v-2h44.12z" fill="#999"/><path d="M282.03 591H281v-2h1.03zM381.25 590l1.1 1h-2.12v-2h2.13z" fill="#999"/><use xlink:href="#t" transform="matrix(1,0,0,1,326.1262268975724,579.2) translate(0.004999999999999893 14.4)"/><path d="M621.23 497.25h-77.4l-1.27.2-2 1.46-.8 2.5V589h-2v-87.9l1.1-3.42 2.9-2.12 1.9-.3h77.57zm96.44-5.92l-.3 1.9-2.13 2.9-3.4 1.12h-77.66v-2h77.33l2.5-.82 1.46-2 .2-1.26V421h2z" fill="#999"/><path d="M539.75 593h-2v-2.1l1-.9-1-.9v-.13h2zM721.3 420h-9.27l4.64-14.26z" fill="#999"/><path d="M722.68 421h-12.03l6.02-18.5zm-9.27-2h6.53l-3.26-10.03z" fill="#999"/><use xlink:href="#u" transform="matrix(1,0,0,1,621.2321064357609,485.45) translate(0.004999999999999893 14.4)"/><path d="M685.32 580.26c2.58-.97 6.78-.97 9.36 0l70.64 26.48c2.58.97 2.58 2.55 0 3.52l-70.64 26.48c-2.58.97-6.78.97-9.36 0l-70.64-26.48c-2.58-.97-2.58-2.55 0-3.52z" stroke="#666" stroke-width="2" fill="#fff"/><use xlink:href="#s" transform="matrix(1,0,0,1,615,583.5) translate(48.55 28.6)"/><path d="M832 837.08l-.3 1.9-2.13 2.9-3.4 1.12H792v-2h33.84l2.5-.82 1.46-2 .2-1.26V772.8h2zM691 673.36l.2 1.27 1.46 2 2.5.8h130.92l1.9.32 2.9 2.12 1.12 3.4v67.93h-2v-67.6l-.82-2.5-2-1.45-1.26-.2H694.84l-3.4-1.12-2.13-2.9-.3-1.9v-34.1h2z" fill="#999"/><path d="M792.03 843H791v-2h1.03zM690.78 638.46l.22-.03v1.04h-2v-1.05z" fill="#999"/><use xlink:href="#t" transform="matrix(1,0,0,1,826,751.2) translate(0.004999999999999893 14.4)"/><path d="M1315.32 863.73c2.58-.97 6.78-.97 9.36 0l70.64 26.5c2.58.95 2.58 2.53 0 3.5l-70.64 26.5c-2.58.95-6.78.95-9.36 0l-70.64-26.5c-2.58-.97-2.58-2.55 0-3.5z" stroke="#666" stroke-width="2" fill="#fff"/><use xlink:href="#s" transform="matrix(1,0,0,1,1245,866.9709572496931) translate(48.55 28.6)"/><path d="M1382 1048.08l-.3 1.9-2.13 2.9-3.4 1.12H1342v-2h33.84l2.5-.82 1.46-2 .2-1.26v-34.86h2zm-61-91.25l.2 1.27 1.46 2 2.5.8h50.92l1.9.32 2.9 2.12 1.12 3.4v24.72h-2v-24.4l-.82-2.48-2-1.46-1.26-.2h-51.08l-3.4-1.12-2.13-2.9-.3-1.9v-34.1h2z" fill="#999"/><path d="M1342.03 1054H1341v-2h1.03zM1320.78 921.93l.22-.03v1.04h-2v-1.05z" fill="#999"/><use xlink:href="#t" transform="matrix(1,0,0,1,1376,991.4570188132466) translate(0.004999999999999893 14.4)"/><path d="M1321 861.03h-2V850.3h2zm0-32.33h-2v-10.73h2z" fill="#999"/><path d="M1321 862.05l-1.78-.04-.22.04V861h2zM1321 818h-2v-1.03h2z" fill="#999"/><use xlink:href="#u" transform="matrix(1,0,0,1,1313.525,828.7) translate(0.004999999999999893 14.4)"/><path d="M769.75 607.5h-2v-93.45h2zm0-115.05h-2V416.5h2z" fill="#999"/><path d="M769.75 611.5h-2v-2.1l1-.9-1-.9v-.13h2zM773.38 415.5h-9.27l4.65-14.26z" fill="#999"/><path d="M774.76 416.5h-12.02l6-18.5zm-9.27-2h6.5l-3.25-10.03z" fill="#999"/><use xlink:href="#u" transform="matrix(1,0,0,1,762.2725462048552,492.45) translate(0.004999999999999893 14.4)"/><path d="M839.07 367.1l2.12 2.92.3 1.9v249.92l.82 2.5 2 1.46 1.26.2h30.44l2.5-.82.27-.38h2.47l-1.52 2.1-3.4 1.1H845.4l-1.9-.3-2.9-2.13-1.12-3.4v-250.1l-.2-1.25-1.46-2-.17-.06v-2.1zm43.1 236.1h-2V588h2zM802 368v-2h25.67v2z" fill="#999"/><path d="M802.03 368H801v-2h1.03zM882.18 586.2l-1 .8 1 .8v.23h-2V584h2z" fill="#999"/><use xlink:href="#t" transform="matrix(1,0,0,1,827.6666666666666,356.2) translate(0.004999999999999893 14.4)"/><use xlink:href="#u" transform="matrix(1,0,0,1,874.7015589067365,603.2) translate(0.004999999999999893 14.4)"/><path d="M1103.53 577h-19.55l-2.5.82-1.45 2-.2 1.26V586h-2v-5.08l.3-1.9 2.12-2.9 3.4-1.12h19.88zm68.14 0h-55.2v-2h55.2zm46.33 0h-36.33v-2H1218z" fill="#999"/><path d="M1219 577h-1.03v-2h1.03zM1079.82 590h-2v-2.2l1-.8-1-.8v-.23h2z" fill="#999"/><use xlink:href="#u" transform="matrix(1,0,0,1,1103.525,565.2) translate(0.004999999999999893 14.4)"/><use xlink:href="#t" transform="matrix(1,0,0,1,1171.6666666666667,565.2) translate(0.004999999999999893 14.4)"/><path d="M981 552.94h-2V503.2h2zm154.65-186.88h-150.5l-2.5.8-1.45 2-.2 1.28V481.6h-2V369.98l.3-1.9 2.13-2.9 3.4-1.12h150.82zm52.35 0h-42.35v-2H1188z" fill="#999"/><path d="M1189 366.06h-1.03v-2h1.03zM981 553.96l-1.85-.03-.15.02v-1.03h2z" fill="#999"/><use xlink:href="#t" transform="matrix(1,0,0,1,1135.6456678756724,354.2552420299133) translate(0.004999999999999893 14.4)"/><use xlink:href="#u" transform="matrix(1,0,0,1,973.525,481.595994682315) translate(0.004999999999999893 14.4)"/><path d="M981 780.9l.2 1.26 1.46 2 2.5.8H1105v2H984.84l-3.4-1.1-2.13-2.9-.3-1.9v-62.93h2zm257 4.07v2h-123v-2zm-257-88.44h-2v-75.47h2z" fill="#999"/><path d="M1239 786.97h-1.03v-2h1.03zM980.85 620.07l.15-.02v1.03h-2v-1.04z" fill="#999"/><use xlink:href="#t" transform="matrix(1,0,0,1,1105,775.1709572496932) translate(0.004999999999999893 14.4)"/><use xlink:href="#u" transform="matrix(1,0,0,1,973.525,696.5333333333334) translate(0.004999999999999893 14.4)"/><path d="M1015.13 115.15c2.7-.64 7.05-.64 9.74 0l130.26 30.7c2.7.64 2.7 1.66 0 2.3l-130.26 30.7c-2.7.64-7.05.64-9.74 0l-130.26-30.7c-2.7-.64-2.7-1.66 0-2.3z" stroke="#666" stroke-width="2" fill="#3ef900"/><use xlink:href="#v" transform="matrix(1,0,0,1,885,119) translate(37.500000000000014 31.6)"/><path d="M839.52 151H822v-2h17.52zm42.23-2.62l-.74 1.8-1.97.82h-26.55v-2h26.15l.85-.35.43-1.03z" fill="#999"/><path d="M822.03 151H821v-2h1.03zM881.83 146.43l-1 .57 1 .57v.46h-2V144h2z" fill="#999"/><use xlink:href="#u" transform="matrix(1,0,0,1,839.525,139.2) translate(0.004999999999999893 14.4)"/><path d="M902.2 341.86H801.82v-2H902.2zm118.8-5.92l-.3 1.9-2.13 2.9-3.4 1.12H915.13v-2h99.7l2.5-.82 1.46-2 .2-1.26V181.3h2z" fill="#999"/><path d="M801.85 341.86H801l-.3-1.84-.13-.16h1.28zM1020.97 180.3l.03 1.03h-2v-1.03z" fill="#999"/><use xlink:href="#u" transform="matrix(1,0,0,1,902.1916666666666,330.05564401190423) translate(0.004999999999999893 14.4)"/><defs><path fill="#333" d="M240 0l2-218c-23 76-54 145-80 218h-23L58-218 59 0H30v-248h44l77 211c21-75 51-140 76-211h43V0h-30" id="w"/><path fill="#333" d="M205 0l-28-72H64L36 0H1l101-248h38L239 0h-34zm-38-99l-47-123c-12 45-31 82-46 123h93" id="x"/><path fill="#333" d="M127-220V0H93v-220H8v-28h204v28h-85" id="y"/><path fill="#333" d="M30 0v-248h187v28H63v79h144v27H63v87h162V0H30" id="z"/><path fill="#333" d="M233-177c-1 41-23 64-60 70L243 0h-38l-65-103H63V0H30v-248c88 3 205-21 203 71zM63-129c60-2 137 13 137-47 0-61-80-42-137-45v92" id="A"/><path fill="#333" d="M33 0v-248h34V0H33" id="B"/><g id="a"><use transform="matrix(0.05,0,0,0.05,0,0)" xlink:href="#w"/><use transform="matrix(0.05,0,0,0.05,14.950000000000001,0)" xlink:href="#x"/><use transform="matrix(0.05,0,0,0.05,25.6,0)" xlink:href="#y"/><use transform="matrix(0.05,0,0,0.05,36.550000000000004,0)" xlink:href="#z"/><use transform="matrix(0.05,0,0,0.05,48.550000000000004,0)" xlink:href="#A"/><use transform="matrix(0.05,0,0,0.05,61.5,0)" xlink:href="#B"/><use transform="matrix(0.05,0,0,0.05,66.5,0)" xlink:href="#x"/></g><path fill="#333" d="M24 0v-248h52V0H24" id="C"/><path fill="#333" d="M24-248c120-7 223 5 221 122C244-46 201 0 124 0H24v-248zM76-40c74 7 117-18 117-86 0-67-45-88-117-82v168" id="D"/><g id="b"><use transform="matrix(0.05,0,0,0.05,0,0)" xlink:href="#C"/><use transform="matrix(0.05,0,0,0.05,5,0)" xlink:href="#D"/></g><path fill="#333" d="M212-179c-10-28-35-45-73-45-59 0-87 40-87 99 0 60 29 101 89 101 43 0 62-24 78-52l27 14C228-24 195 4 139 4 59 4 22-46 18-125c-6-104 99-153 187-111 19 9 31 26 39 46" id="E"/><path fill="#333" d="M30 0v-248h33v221h125V0H30" id="F"/><path fill="#333" d="M137 0h-34L2-248h35l83 218 83-218h36" id="G"/><g id="c"><use transform="matrix(0.05,0,0,0.05,0,0)" xlink:href="#E"/><use transform="matrix(0.05,0,0,0.05,12.950000000000001,0)" xlink:href="#F"/><use transform="matrix(0.05,0,0,0.05,22.950000000000003,0)" xlink:href="#x"/><use transform="matrix(0.05,0,0,0.05,33.6,0)" xlink:href="#G"/><use transform="matrix(0.05,0,0,0.05,45.6,0)" xlink:href="#z"/></g><path fill="#333" d="M190 0L58-211 59 0H30v-248h39L202-35l-2-213h31V0h-41" id="H"/><path fill="#333" d="M140-251c81 0 123 46 123 126C263-46 219 4 140 4 59 4 17-45 17-125s42-126 123-126zm0 227c63 0 89-41 89-101s-29-99-89-99c-61 0-89 39-89 99S79-25 140-24" id="I"/><path fill="#333" d="M160-131c35 5 61 23 61 61C221 17 115-2 30 0v-248c76 3 177-17 177 60 0 33-19 50-47 57zm-97-11c50-1 110 9 110-42 0-47-63-36-110-37v79zm0 115c55-2 124 14 124-45 0-56-70-42-124-44v89" id="J"/><g id="d"><use transform="matrix(0.05,0,0,0.05,0,0)" xlink:href="#H"/><use transform="matrix(0.05,0,0,0.05,12.950000000000001,0)" xlink:href="#I"/><use transform="matrix(0.05,0,0,0.05,26.950000000000003,0)" xlink:href="#w"/><use transform="matrix(0.05,0,0,0.05,41.900000000000006,0)" xlink:href="#J"/><use transform="matrix(0.05,0,0,0.05,53.900000000000006,0)" xlink:href="#A"/><use transform="matrix(0.05,0,0,0.05,66.85000000000001,0)" xlink:href="#z"/></g><path fill="#333" d="M30-248c118-7 216 8 213 122C240-48 200 0 122 0H30v-248zM63-27c89 8 146-16 146-99s-60-101-146-95v194" id="K"/><path fill="#333" d="M185-189c-5-48-123-54-124 2 14 75 158 14 163 119 3 78-121 87-175 55-17-10-28-26-33-46l33-7c5 56 141 63 141-1 0-78-155-14-162-118-5-82 145-84 179-34 5 7 8 16 11 25" id="L"/><g id="e"><use transform="matrix(0.05,0,0,0.05,0,0)" xlink:href="#E"/><use transform="matrix(0.05,0,0,0.05,12.950000000000001,0)" xlink:href="#A"/><use transform="matrix(0.05,0,0,0.05,25.900000000000002,0)" xlink:href="#z"/><use transform="matrix(0.05,0,0,0.05,37.900000000000006,0)" xlink:href="#K"/><use transform="matrix(0.05,0,0,0.05,50.85000000000001,0)" xlink:href="#B"/><use transform="matrix(0.05,0,0,0.05,55.85,0)" xlink:href="#y"/><use transform="matrix(0.05,0,0,0.05,66.45,0)" xlink:href="#I"/><use transform="matrix(0.05,0,0,0.05,80.45,0)" xlink:href="#L"/></g><g id="f"><use transform="matrix(0.05,0,0,0.05,0,0)" xlink:href="#L"/><use transform="matrix(0.05,0,0,0.05,12,0)" xlink:href="#z"/><use transform="matrix(0.05,0,0,0.05,24,0)" xlink:href="#E"/><use transform="matrix(0.05,0,0,0.05,36.95,0)" xlink:href="#E"/><use transform="matrix(0.05,0,0,0.05,49.900000000000006,0)" xlink:href="#B"/><use transform="matrix(0.05,0,0,0.05,54.900000000000006,0)" xlink:href="#I"/><use transform="matrix(0.05,0,0,0.05,68.9,0)" xlink:href="#H"/></g><path fill="#333" d="M30-248c87 1 191-15 191 75 0 78-77 80-158 76V0H30v-248zm33 125c57 0 124 11 124-50 0-59-68-47-124-48v98" id="M"/><path fill="#333" d="M63-220v92h138v28H63V0H30v-248h175v28H63" id="N"/><g id="g"><use transform="matrix(0.05,0,0,0.05,0,0)" xlink:href="#M"/><use transform="matrix(0.05,0,0,0.05,12,0)" xlink:href="#A"/><use transform="matrix(0.05,0,0,0.05,24.950000000000003,0)" xlink:href="#I"/><use transform="matrix(0.05,0,0,0.05,38.95,0)" xlink:href="#N"/><use transform="matrix(0.05,0,0,0.05,49.900000000000006,0)" xlink:href="#z"/><use transform="matrix(0.05,0,0,0.05,61.900000000000006,0)" xlink:href="#L"/><use transform="matrix(0.05,0,0,0.05,73.9,0)" xlink:href="#I"/><use transform="matrix(0.05,0,0,0.05,87.9,0)" xlink:href="#A"/></g><g id="h"><use transform="matrix(0.05,0,0,0.05,0,0)" xlink:href="#E"/><use transform="matrix(0.05,0,0,0.05,12.950000000000001,0)" xlink:href="#B"/><use transform="matrix(0.05,0,0,0.05,17.950000000000003,0)" xlink:href="#E"/><use transform="matrix(0.05,0,0,0.05,30.900000000000006,0)" xlink:href="#F"/><use transform="matrix(0.05,0,0,0.05,40.900000000000006,0)" xlink:href="#I"/></g><g id="i"><use transform="matrix(0.05,0,0,0.05,0,0)" xlink:href="#K"/><use transform="matrix(0.05,0,0,0.05,12.950000000000001,0)" xlink:href="#x"/><use transform="matrix(0.05,0,0,0.05,23.6,0)" xlink:href="#y"/><use transform="matrix(0.05,0,0,0.05,34.2,0)" xlink:href="#I"/><use transform="matrix(0.05,0,0,0.05,48.2,0)" xlink:href="#L"/></g><g id="j"><use transform="matrix(0.05,0,0,0.05,0,0)" xlink:href="#E"/><use transform="matrix(0.05,0,0,0.05,12.950000000000001,0)" xlink:href="#x"/><use transform="matrix(0.05,0,0,0.05,24.950000000000003,0)" xlink:href="#A"/><use transform="matrix(0.05,0,0,0.05,37.900000000000006,0)" xlink:href="#A"/><use transform="matrix(0.05,0,0,0.05,50.85000000000001,0)" xlink:href="#z"/><use transform="matrix(0.05,0,0,0.05,62.85,0)" xlink:href="#A"/><use transform="matrix(0.05,0,0,0.05,75.80000000000001,0)" xlink:href="#x"/></g><g id="k"><use transform="matrix(0.05,0,0,0.05,0,0)" xlink:href="#K"/><use transform="matrix(0.05,0,0,0.05,12.950000000000001,0)" xlink:href="#B"/><use transform="matrix(0.05,0,0,0.05,17.950000000000003,0)" xlink:href="#x"/><use transform="matrix(0.05,0,0,0.05,29.950000000000003,0)" xlink:href="#L"/></g><path fill="#333" d="M197 0v-115H63V0H30v-248h33v105h134v-105h34V0h-34" id="O"/><g id="l"><use transform="matrix(0.05,0,0,0.05,0,0)" xlink:href="#O"/><use transform="matrix(0.05,0,0,0.05,12.950000000000001,0)" xlink:href="#I"/><use transform="matrix(0.05,0,0,0.05,26.950000000000003,0)" xlink:href="#A"/><use transform="matrix(0.05,0,0,0.05,39.900000000000006,0)" xlink:href="#x"/><use transform="matrix(0.05,0,0,0.05,51.900000000000006,0)" xlink:href="#A"/><use transform="matrix(0.05,0,0,0.05,64.85000000000001,0)" xlink:href="#B"/><use transform="matrix(0.05,0,0,0.05,69.85000000000001,0)" xlink:href="#I"/></g><g id="m"><use transform="matrix(0.05,0,0,0.05,0,0)" xlink:href="#z"/><use transform="matrix(0.05,0,0,0.05,12,0)" xlink:href="#K"/><use transform="matrix(0.05,0,0,0.05,24.950000000000003,0)" xlink:href="#B"/><use transform="matrix(0.05,0,0,0.05,29.950000000000003,0)" xlink:href="#N"/><use transform="matrix(0.05,0,0,0.05,40.900000000000006,0)" xlink:href="#B"/><use transform="matrix(0.05,0,0,0.05,45.900000000000006,0)" xlink:href="#E"/><use transform="matrix(0.05,0,0,0.05,58.85,0)" xlink:href="#B"/><use transform="matrix(0.05,0,0,0.05,63.85,0)" xlink:href="#I"/></g><path fill="#333" d="M232-93c-1 65-40 97-104 97C67 4 28-28 28-90v-158h33c8 89-33 224 67 224 102 0 64-133 71-224h33v155" id="P"/><g id="n"><use transform="matrix(0.05,0,0,0.05,0,0)" xlink:href="#x"/><use transform="matrix(0.05,0,0,0.05,12,0)" xlink:href="#P"/><use transform="matrix(0.05,0,0,0.05,24.950000000000003,0)" xlink:href="#F"/><use transform="matrix(0.05,0,0,0.05,34.95,0)" xlink:href="#x"/></g><path fill="#333" d="M143 4C61 4 22-44 18-125c-5-107 100-154 193-111 17 8 29 25 37 43l-32 9c-13-25-37-40-76-40-61 0-88 39-88 99 0 61 29 100 91 101 35 0 62-11 79-27v-45h-74v-28h105v86C228-13 192 4 143 4" id="Q"/><path fill="#333" d="M-5 72V49h209v23H-5" id="R"/><g id="o"><use transform="matrix(0.05,0,0,0.05,0,0)" xlink:href="#x"/><use transform="matrix(0.05,0,0,0.05,12,0)" xlink:href="#Q"/><use transform="matrix(0.05,0,0,0.05,26,0)" xlink:href="#z"/><use transform="matrix(0.05,0,0,0.05,38,0)" xlink:href="#H"/><use transform="matrix(0.05,0,0,0.05,50.95,0)" xlink:href="#K"/><use transform="matrix(0.05,0,0,0.05,63.900000000000006,0)" xlink:href="#x"/><use transform="matrix(0.05,0,0,0.05,75.9,0)" xlink:href="#R"/><use transform="matrix(0.05,0,0,0.05,85.9,0)" xlink:href="#E"/><use transform="matrix(0.05,0,0,0.05,98.85000000000001,0)" xlink:href="#P"/><use transform="matrix(0.05,0,0,0.05,111.80000000000001,0)" xlink:href="#A"/><use transform="matrix(0.05,0,0,0.05,124.75,0)" xlink:href="#L"/><use transform="matrix(0.05,0,0,0.05,136.75,0)" xlink:href="#I"/></g><g id="p"><use transform="matrix(0.05,0,0,0.05,0,0)" xlink:href="#E"/><use transform="matrix(0.05,0,0,0.05,12.950000000000001,0)" xlink:href="#P"/><use transform="matrix(0.05,0,0,0.05,25.900000000000002,0)" xlink:href="#A"/><use transform="matrix(0.05,0,0,0.05,38.85,0)" xlink:href="#L"/><use transform="matrix(0.05,0,0,0.05,50.85,0)" xlink:href="#I"/></g><g id="q"><use transform="matrix(0.05,0,0,0.05,0,0)" xlink:href="#E"/><use transform="matrix(0.05,0,0,0.05,12.950000000000001,0)" xlink:href="#P"/><use transform="matrix(0.05,0,0,0.05,25.900000000000002,0)" xlink:href="#M"/><use transform="matrix(0.05,0,0,0.05,37.900000000000006,0)" xlink:href="#I"/><use transform="matrix(0.05,0,0,0.05,51.900000000000006,0)" xlink:href="#L"/></g><g id="r"><use transform="matrix(0.05,0,0,0.05,0,0)" xlink:href="#H"/><use transform="matrix(0.05,0,0,0.05,12.950000000000001,0)" xlink:href="#A"/><use transform="matrix(0.05,0,0,0.05,25.900000000000002,0)" xlink:href="#E"/></g><g id="s"><use transform="matrix(0.05,0,0,0.05,0,0)" xlink:href="#y"/><use transform="matrix(0.05,0,0,0.05,10.950000000000001,0)" xlink:href="#B"/><use transform="matrix(0.05,0,0,0.05,15.950000000000001,0)" xlink:href="#z"/><use transform="matrix(0.05,0,0,0.05,27.950000000000003,0)" xlink:href="#H"/><use transform="matrix(0.05,0,0,0.05,40.900000000000006,0)" xlink:href="#z"/></g><path fill="#333" d="M27 0v-27h64v-190l-56 39v-29l58-41h29v221h61V0H27" id="S"/><use transform="matrix(0.05,0,0,0.05,0,0)" xlink:href="#S" id="t"/><use transform="matrix(0.05,0,0,0.05,0,0)" xlink:href="#H" id="u"/><g id="v"><use transform="matrix(0.05,0,0,0.05,0,0)" xlink:href="#E"/><use transform="matrix(0.05,0,0,0.05,12.950000000000001,0)" xlink:href="#x"/><use transform="matrix(0.05,0,0,0.05,23.6,0)" xlink:href="#y"/><use transform="matrix(0.05,0,0,0.05,33.2,0)" xlink:href="#x"/><use transform="matrix(0.05,0,0,0.05,45.2,0)" xlink:href="#F"/><use transform="matrix(0.05,0,0,0.05,55.2,0)" xlink:href="#I"/><use transform="matrix(0.05,0,0,0.05,69.2,0)" xlink:href="#Q"/><use transform="matrix(0.05,0,0,0.05,83.2,0)" xlink:href="#I"/><use transform="matrix(0.05,0,0,0.05,97.2,0)" xlink:href="#R"/><use transform="matrix(0.05,0,0,0.05,107.2,0)" xlink:href="#E"/><use transform="matrix(0.05,0,0,0.05,120.15,0)" xlink:href="#x"/><use transform="matrix(0.05,0,0,0.05,132.15,0)" xlink:href="#A"/><use transform="matrix(0.05,0,0,0.05,145.1,0)" xlink:href="#A"/><use transform="matrix(0.05,0,0,0.05,158.04999999999998,0)" xlink:href="#z"/><use transform="matrix(0.05,0,0,0.05,170.04999999999998,0)" xlink:href="#A"/><use transform="matrix(0.05,0,0,0.05,182.99999999999997,0)" xlink:href="#x"/></g></defs></g></svg>